<?xml version="1.0" encoding="UTF-8"?>
<svg xmlns="http://www.w3.org/2000/svg" style="display: none;">
 <symbol version="1.0" xmlns="http://www.w3.org/2000/svg" preserveAspectRatio="xMidYMid meet" id='socratic-icon'  viewBox="0 0 52 30">
    <g transform="translate(0.000000,40.000000)  scale(0.0100000,-0.0100000)" stroke="none">
      <path d="M2331 5109 c-123 -13 -272 -45 -389 -84 -163 -55 -357 -159 -382
-205 -19 -35 -12 -85 16 -113 46 -47 75 -45 172 11 227 130 437 187 737 199
484 19 878 -123 1144 -413 243 -265 379 -637 422 -1149 13 -153 7 -433 -11
-530 -31 -168 -89 -261 -180 -285 -75 -20 -269 -6 -530 38 -388 67 -485 76
-770 76 -285 0 -382 -9 -770 -76 -261 -44 -455 -58 -530 -38 -92 25 -147 113
-182 290 -19 100 -16 534 6 690 21 157 58 322 96 436 38 111 38 137 1 175 -54
54 -136 35 -166 -38 -44 -104 -105 -359 -126 -525 l-12 -96 -65 -22 c-136 -44
-236 -129 -297 -253 -137 -277 5 -607 302 -699 64 -20 73 -26 73 -47 0 -38 29
-226 55 -356 55 -276 145 -514 231 -614 31 -36 35 -45 22 -52 -38 -21 -181
-128 -255 -191 -115 -97 -288 -279 -375 -396 -150 -198 -296 -465 -305 -557
-8 -76 19 -148 76 -205 88 -88 -121 -80 2216 -80 2337 0 2139 -7 2225 79 86
86 101 192 44 316 -73 160 -195 354 -323 512 -138 172 -385 398 -544 498 l-45
29 41 50 c55 70 130 230 166 356 51 178 65 253 117 606 4 29 10 33 71 53 136
45 237 131 299 256 136 275 -7 607 -298 696 -63 19 -68 23 -68 49 0 16 -11 94
-25 173 -162 944 -754 1455 -1674 1446 -69 -1 -164 -6 -210 -10z m-1468 -2417
c-3 -8 -68 32 -104 65 -85 77 -118 199 -84 308 21 65 87 145 144 174 l36 19 5
-281 c3 -155 4 -283 3 -285z m3521 478 c127 -142 87 -363 -83 -458 l-41 -23 0
286 0 285 39 -19 c21 -11 59 -43 85 -71z m-1434 -735 c69 -9 233 -34 365 -57
216 -38 257 -42 410 -42 151 -1 175 1 220 20 28 12 57 25 66 28 13 6 16 2 13
-16 -42 -268 -78 -427 -133 -578 -39 -106 -103 -210 -130 -210 -23 0 -58 39
-101 115 -36 63 -53 75 -108 75 -58 0 -92 -42 -92 -114 0 -122 -84 -354 -177
-492 -45 -66 -119 -138 -152 -149 -42 -13 -85 50 -131 188 -14 43 -30 73 -45
83 -45 30 -116 17 -143 -26 -6 -11 -16 -60 -22 -111 -12 -109 -40 -198 -82
-259 -47 -70 -72 -85 -148 -85 -76 0 -101 15 -148 85 -41 60 -70 154 -82 263
-14 121 -37 151 -113 149 -49 -1 -73 -26 -97 -99 -46 -138 -89 -201 -131 -188
-33 11 -107 83 -152 149 -93 138 -177 370 -177 492 0 72 -34 114 -92 114 -56
0 -70 -11 -116 -87 -46 -78 -75 -108 -97 -100 -46 18 -130 204 -179 400 -35
134 -82 394 -74 402 2 3 23 -4 46 -15 116 -56 293 -53 687 13 149 25 320 50
380 56 61 6 126 13 145 15 77 9 473 -4 590 -19z m-1410 -1130 c81 -208 216
-392 338 -458 93 -51 180 -46 267 13 l41 28 33 -64 c46 -88 99 -145 173 -184
56 -30 74 -35 156 -38 91 -4 95 -4 167 32 85 42 135 93 187 191 l34 65 40 -29
c117 -85 245 -60 378 76 91 92 190 261 249 426 6 17 12 15 69 -17 35 -19 64
-42 66 -49 4 -21 -72 -209 -123 -303 -203 -371 -544 -614 -1019 -724 -268 -61
-429 -70 -1322 -70 -761 0 -774 0 -794 20 -11 11 -20 30 -20 43 0 30 126 259
207 375 163 234 371 441 595 593 94 64 242 148 249 141 3 -4 16 -34 29 -67z
m2484 -199 c169 -137 343 -332 469 -526 73 -113 167 -291 167 -318 0 -12 -9
-31 -20 -42 -20 -20 -33 -20 -817 -20 l-798 0 113 59 c334 175 573 437 728
799 24 57 44 107 44 112 0 22 27 6 114 -64z"></path>
      <path d="M2203 2266 c-24 -21 -28 -32 -27 -73 2 -97 95 -223 207 -277 202 -99
443 -14 539 190 24 50 29 73 25 102 -8 49 -46 82 -95 82 -51 0 -79 -22 -106
-83 -35 -79 -114 -137 -186 -137 -72 0 -151 58 -186 137 -13 28 -33 58 -46 67
-34 24 -92 20 -125 -8z"></path>
      <path d="M1273 4548 c-30 -14 -56 -73 -48 -106 21 -87 141 -108 180 -31 48 92
-39 182 -132 137z"></path>
      <path d="M2170 4184 c-30 -8 -76 -29 -103 -46 -28 -18 -71 -35 -100 -39 -88
-14 -128 -79 -92 -149 20 -38 43 -50 97 -50 62 0 115 17 183 58 46 28 71 37
105 37 34 0 59 -9 105 -37 72 -43 121 -58 195 -58 74 0 123 15 195 58 46 28
71 37 105 37 34 0 59 -9 105 -37 90 -54 195 -75 246 -48 24 13 49 61 49 94 0
42 -48 86 -100 93 -25 3 -70 21 -101 39 -56 33 -151 64 -199 64 -49 0 -143
-31 -199 -65 -76 -47 -123 -47 -200 0 -60 36 -154 65 -206 64 -16 0 -55 -7
-85 -15z"></path>
      <path d="M2030 3747 c-25 -7 -77 -28 -117 -45 -40 -18 -94 -35 -120 -38 -82
-9 -93 -14 -113 -47 -28 -45 -25 -81 9 -119 29 -32 32 -33 103 -31 73 2 120
15 243 67 44 19 78 26 125 26 47 0 81 -7 125 -26 146 -62 166 -67 275 -67 109
0 129 5 275 67 82 35 168 35 250 0 123 -52 170 -65 243 -67 71 -2 74 -1 103
31 34 38 37 74 9 119 -20 33 -31 38 -112 47 -26 3 -91 25 -145 48 l-98 43
-125 0 -125 0 -100 -45 c-90 -39 -108 -44 -175 -44 -67 0 -86 5 -175 44 -94
41 -106 44 -205 47 -66 2 -122 -2 -150 -10z"></path>
      <path d="M2005 3131 c-61 -28 -90 -86 -90 -181 0 -57 5 -85 21 -115 42 -81
127 -108 195 -62 52 34 74 88 74 177 0 96 -32 159 -95 184 -50 20 -56 20 -105
-3z"></path>
      <path d="M3020 3139 c-103 -41 -141 -202 -75 -314 60 -103 182 -99 235 6 60
117 19 270 -83 308 -34 13 -44 13 -77 0z"></path>
    </g>
  </symbol>
  <symbol id='discourse-follow-new-follower'  viewBox="0 0 33 30">
    <path d="M23.1 29.2h1.5c.8 0 1.5-.7 1.5-1.5v-5.3h5.1c.8 0 1.5-.7 1.5-1.5v-1.5c0-.8-.7-1.5-1.5-1.5h-5.1v-5c0-.8-.7-1.5-1.5-1.5h-1.5c-.8 0-1.5.7-1.5 1.5v5h-4.7c-.8 0-1.5.7-1.5 1.5v1.5c0 .8.7 1.5 1.5 1.5h4.7v5.3c0 .8.6 1.5 1.5 1.5zM18.4 29.1v-3.9c0-.1-.1-.1-.1-.1h-2.5c-2.7 0-3.7-2.1-3.7-4V18c0-.2-.2-.2-.2-.2-1.3 0-2.6-.4-4-1h-.5c-4.1 0-7.4 3.3-7.4 7.4v1.9c0 1.7 1.4 3.1 3.1 3.1h15.2c0 .1.1 0 .1-.1z"/>
    <circle cx="12.5" cy="7.1" r="7.1"/>
  </symbol>
  <symbol id='discourse-follow-new-topic'  viewBox="0 0 33 30">
    <path d="M32.6 21.6c-.6-.7-1.8-1.7-1.8-5 0-2.4-1.6-4.3-3.8-4.9-.3-1.6-2.4-1.6-2.7 0-2.2.6-3.9 2.5-3.9 4.9 0 3.3-1.2 4.3-1.8 5-.2.2-.3.5-.3.7 0 .5.4 1 1 1h12.5c.9 0 1.4-1.1.8-1.7zM20.1 29.2h-17c-1.7 0-3.1-1.4-3.1-3.1v-1.9c0-4.3 3.7-7.7 8-7.4 2.6 1.3 6 1.4 8.6.1 0 0 .1-.1.1 0 0 2.4-.5 2.8-1.2 3.5-2 2.1-.7 5.9 2.4 5.7h.8c.1 0 .1.3.1.4.1 1.1.6 1.8 1.3 2.7M25.6 29.2c1.7 0 3-1.3 3-2.9h-6c0 1.5 1.3 2.9 3 2.9zM12.3 14.2c3.9 0 7.1-3.2 7.1-7.1-.3-9.5-14-9.5-14.3 0 0 3.9 3.2 7.1 7.2 7.1z"/>
  </symbol>
</svg>
